<svg width="82" height="72" viewBox="0 0 82 72" fill="none" xmlns="http://www.w3.org/2000/svg">
<path d="M12.5443 25.0872L12.6263 24.634C13.74 18.5219 18.5226 13.7436 24.6347 12.6256L25.0879 12.5436L24.6347 12.4616C18.5226 11.3479 13.7443 6.56531 12.6263 0.453221L12.5443 0L12.4623 0.453221C11.3486 6.56531 6.56602 11.3436 0.453936 12.4616L0.000713348 12.5436L0.954632 12.7508C7.00197 14.0673 11.6076 18.9751 12.5443 25.0872Z" fill="#3BEA62"/>
<path d="M54.0377 48.8279C60.0728 48.8279 65.7458 46.4797 70.0142 42.2112C74.2827 37.9428 76.6309 32.2698 76.6309 26.2347C76.6309 20.1997 74.2827 14.5267 70.0142 10.2582C65.7458 5.98979 60.0728 3.6416 54.0377 3.6416C48.0026 3.6416 42.3297 5.98979 38.0612 10.2582C33.7928 14.5267 31.4446 20.1997 31.4446 26.2347C31.4446 32.2698 33.7928 37.9428 38.0612 42.2112C42.3297 46.4797 48.0026 48.8279 54.0377 48.8279Z" fill="#087CFA"/>
<path d="M54.038 9.24639C49.2453 9.24639 44.7377 11.0713 41.3489 14.3882C37.96 17.7052 36.0955 22.117 36.0955 26.808C36.0955 31.4989 37.96 35.9108 41.3489 39.2278C44.7377 42.5447 49.2453 44.3696 54.038 44.3696C58.8307 44.3696 63.3383 42.5447 66.7271 39.2278C70.116 35.9108 71.9804 31.4989 71.9804 26.808C71.9804 22.117 70.116 17.7052 66.7271 14.3882C63.3383 11.0766 58.8307 9.24639 54.038 9.24639ZM54.038 0.165039C61.0077 0.165039 67.9719 2.76814 73.291 7.96899C83.9238 18.3761 83.9238 35.2506 73.291 45.6577C67.9774 50.8586 61.0077 53.4617 54.038 53.4617C47.0683 53.4617 40.1041 50.8586 34.7849 45.6577C24.1522 35.2506 24.1522 18.3761 34.7849 7.96899C40.1041 2.76814 47.0738 0.165039 54.038 0.165039Z" fill="#FF318C"/>
<path fill-rule="evenodd" clip-rule="evenodd" d="M16.6779 72L41.875 46.8056L33.472 38.3999L8.27494 63.5942L16.6779 72Z" fill="#FF318C"/>
<path d="M36.0812 26.9004C36.0812 26.9004 44.9877 18.7821 53.4001 18.7031C53.4221 18.7031 53.4385 18.7031 53.4605 18.7031C53.4825 18.7031 53.499 18.7031 53.5209 18.7031C61.9388 18.7821 70.8398 26.9004 70.8398 26.9004C70.8398 26.9004 61.9333 34.8501 53.5209 34.9238C53.499 34.9238 53.4825 34.9238 53.4605 34.9238C53.4385 34.9238 53.4221 34.9238 53.4001 34.9238C44.9877 34.8449 36.0812 26.9004 36.0812 26.9004Z" fill="white"/>
<path d="M54.0397 32.6062C50.5203 32.6062 47.6673 30.0126 47.6673 26.8131C47.6673 23.6137 50.5203 21.02 54.0397 21.02C57.5591 21.02 60.4121 23.6137 60.4121 26.8131C60.4121 30.0126 57.5591 32.6062 54.0397 32.6062Z" fill="black"/>
</svg>
