<svg xmlns="http://www.w3.org/2000/svg" height="24" width="24" viewBox="0 0 24 24" fill="rgba(255,255,255,0.5)" class="_icon_jncl6f_3 _sizeM_jncl6f_12 wt-social-list__icon _icon_1e63mqc_525"><path d="M9.712 9.616a5.69 5.69 0 0 0-5.554 5.688 5.68 5.68 0 0 0 1.529 3.878A5.68 5.68 0 0 0 9.85 21a5.7 5.7 0 0 0 5.691-5.696v-6.29a7.355 7.355 0 0 0 4.301 1.383V7.305a4.296 4.296 0 0 1-3.244-1.484A4.275 4.275 0 0 1 15.54 3h-3.094l-.004 12.4a2.6 2.6 0 0 1-2.593 2.503c-.867 0-1.63-.429-2.106-1.079a2.573 2.573 0 0 1-.492-1.515c0-1.433 1.165-2.6 2.598-2.6.267 0 .526.047.768.122V9.67a5.783 5.783 0 0 0-.768-.054"></path></svg>